<svg width="47" height="47" viewBox="0 0 47 47" fill="none" xmlns="http://www.w3.org/2000/svg">
<path d="M31.8835 20.9914C32.0203 21.1278 32.1288 21.2899 32.2029 21.4683C32.2769 21.6468 32.315 21.8381 32.315 22.0313C32.315 22.2244 32.2769 22.4157 32.2029 22.5942C32.1288 22.7726 32.0203 22.9347 31.8835 23.0711L23.071 31.8836C22.9346 32.0204 22.7725 32.1289 22.5941 32.203C22.4156 32.277 22.2243 32.3151 22.0312 32.3151C21.838 32.3151 21.6467 32.277 21.4682 32.203C21.2898 32.1289 21.1277 32.0204 20.9913 31.8836L16.585 27.4774C16.4485 27.3408 16.3401 27.1787 16.2662 27.0003C16.1923 26.8219 16.1543 26.6306 16.1543 26.4375C16.1543 26.2444 16.1923 26.0531 16.2662 25.8747C16.3401 25.6963 16.4485 25.5342 16.585 25.3976C16.8608 25.1218 17.2349 24.9669 17.6249 24.9669C17.818 24.9669 18.0093 25.0049 18.1877 25.0788C18.3661 25.1527 18.5282 25.2611 18.6648 25.3976L22.0312 28.7669L29.8038 20.9914C29.9402 20.8546 30.1023 20.7461 30.2807 20.672C30.4592 20.598 30.6505 20.5599 30.8437 20.5599C31.0368 20.5599 31.2281 20.598 31.4066 20.672C31.585 20.7461 31.7471 20.8546 31.8835 20.9914Z" fill="#EED2B2"/>
<path d="M10.2812 0C10.6708 0 11.0444 0.154743 11.3198 0.430187C11.5953 0.705631 11.75 1.07921 11.75 1.46875V2.9375H35.25V1.46875C35.25 1.07921 35.4047 0.705631 35.6802 0.430187C35.9556 0.154743 36.3292 0 36.7188 0C37.1083 0 37.4819 0.154743 37.7573 0.430187C38.0328 0.705631 38.1875 1.07921 38.1875 1.46875V2.9375H41.125C42.6831 2.9375 44.1775 3.55647 45.2793 4.65825C46.381 5.76002 47 7.25435 47 8.8125V41.125C47 42.6831 46.381 44.1775 45.2793 45.2793C44.1775 46.381 42.6831 47 41.125 47H5.875C4.31685 47 2.82252 46.381 1.72075 45.2793C0.618972 44.1775 0 42.6831 0 41.125V8.8125C0 7.25435 0.618972 5.76002 1.72075 4.65825C2.82252 3.55647 4.31685 2.9375 5.875 2.9375H8.8125V1.46875C8.8125 1.07921 8.96724 0.705631 9.24269 0.430187C9.51813 0.154743 9.89171 0 10.2812 0V0ZM2.9375 11.75V41.125C2.9375 41.9041 3.24699 42.6512 3.79787 43.2021C4.34876 43.753 5.09593 44.0625 5.875 44.0625H41.125C41.9041 44.0625 42.6512 43.753 43.2021 43.2021C43.753 42.6512 44.0625 41.9041 44.0625 41.125V11.75H2.9375Z" fill="#EED2B2"/>
</svg>
