<svg width="29" height="32" viewBox="0 0 29 32" fill="none" xmlns="http://www.w3.org/2000/svg">
<g clip-path="url(#clip0_67_554)">
<path d="M11.5 7.675C6.79397 7.675 2.9683 11.3688 2.96183 15.9125C2.96183 17.4688 3.41496 18.9875 4.26942 20.2938L4.47009 20.6063L3.60915 23.6437L6.83929 22.825L7.15 23.0063C8.45759 23.7563 9.95937 24.1562 11.4935 24.1562H11.5C16.1996 24.1562 20.1288 20.4625 20.1288 15.9187C20.1288 13.7188 19.1449 11.65 17.533 10.0938C15.9147 8.53125 13.7786 7.675 11.5 7.675ZM16.5167 19.45C16.3031 20.0312 15.2804 20.5562 14.7884 20.625C13.9728 20.7437 13.3384 20.6812 11.7136 20.0063C9.14375 18.9312 7.46071 16.4312 7.33125 16.2687C7.20179 16.1062 6.28259 14.925 6.28259 13.7063C6.28259 12.4875 6.94286 11.8875 7.18237 11.6375C7.4154 11.3875 7.69375 11.325 7.86853 11.325C8.03683 11.325 8.21161 11.325 8.36049 11.3313C8.51585 11.3375 8.72946 11.275 8.93661 11.7563C9.15022 12.25 9.66161 13.4688 9.72634 13.5938C9.79107 13.7188 9.83638 13.8625 9.74576 14.025C9.25379 14.975 8.72946 14.9375 8.99487 15.375C9.98527 17.0188 10.9757 17.5875 12.4839 18.3188C12.7429 18.4438 12.8917 18.425 13.0406 18.2563C13.1895 18.0938 13.6815 17.5312 13.8498 17.2875C14.0181 17.0375 14.1929 17.0813 14.4259 17.1625C14.6589 17.2438 15.9212 17.8438 16.1801 17.9688C16.4391 18.0938 16.6074 18.1562 16.6721 18.2563C16.7304 18.375 16.7304 18.875 16.5167 19.45ZM22.8929 2H0.107143C-1.60826 2 -3 3.34375 -3 5V27C-3 28.6562 -1.60826 30 0.107143 30H22.8929C24.6083 30 26 28.6562 26 27V5C26 3.34375 24.6083 2 22.8929 2ZM11.4935 25.825C9.77165 25.825 8.08214 25.4062 6.58683 24.6187L1.14286 26L2.59933 20.8625C1.69955 19.3625 1.22701 17.6562 1.22701 15.9062C1.23348 10.4438 5.83594 6 11.4935 6C14.2382 6 16.8145 7.03125 18.7565 8.90625C20.692 10.7812 21.8571 13.2687 21.8571 15.9187C21.8571 21.3813 17.1511 25.825 11.4935 25.825Z" fill="white"/>
</g>
<defs>
<clipPath id="clip0_67_554">
<rect width="29" height="32" fill="white"/>
</clipPath>
</defs>
</svg>
