<svg width="29" height="29" viewBox="0 0 29 29" fill="none" xmlns="http://www.w3.org/2000/svg">
<path d="M27.5502 24.65V4.34995C27.5502 2.75495 26.2408 1.44995 24.6429 1.44995H4.35745C2.68995 1.44995 1.4502 2.6868 1.4502 4.34995V24.65C1.4502 26.3146 2.68995 27.55 4.35745 27.55H24.6429C25.4124 27.5488 26.1501 27.2431 26.6949 26.6997C27.2396 26.1563 27.5471 25.4194 27.5502 24.65ZM22.017 16.8301C22.017 16.8301 23.6584 18.4498 24.0629 19.2009C24.0745 19.2168 24.0789 19.2313 24.0832 19.2371C24.2471 19.5126 24.2891 19.7301 24.2065 19.8896C24.0702 20.155 23.6062 20.2884 23.4481 20.3H20.5496C20.3466 20.3 19.9261 20.2478 19.4157 19.8954C19.0242 19.6228 18.637 19.1719 18.26 18.7325C17.6974 18.08 17.2102 17.5145 16.7201 17.5145C16.658 17.5144 16.5962 17.5246 16.5374 17.545C16.1648 17.6639 15.6921 18.1931 15.6921 19.6069C15.6921 20.0491 15.3441 20.3014 15.0976 20.3014H13.7694C13.317 20.3014 10.9607 20.1434 8.8742 17.9408C6.3135 15.2438 4.0138 9.83385 3.9935 9.786C3.8485 9.43655 4.14865 9.2466 4.4749 9.2466H7.4039C7.79685 9.2466 7.923 9.4844 8.0129 9.69755C8.1144 9.9397 8.4972 10.917 9.1236 12.0161C10.1429 13.804 10.7708 14.5319 11.271 14.5319C11.3646 14.5313 11.4564 14.5069 11.5378 14.4608C12.1918 14.0998 12.07 11.7682 12.041 11.2868C12.041 11.1954 12.0395 10.2442 11.706 9.78745C11.4653 9.45685 11.0579 9.3307 10.8114 9.28285C10.9119 9.14435 11.0442 9.03197 11.1971 8.95515C11.6451 8.73185 12.4528 8.69995 13.2561 8.69995H13.7027C14.5741 8.71155 14.8003 8.7681 15.115 8.84785C15.7515 9.0001 15.7646 9.41335 15.708 10.8199C15.6921 11.2201 15.6747 11.6739 15.6747 12.2061C15.6747 12.3206 15.6703 12.4468 15.6703 12.5773C15.65 13.2965 15.6268 14.1099 16.1343 14.4434C16.2 14.4845 16.2758 14.5066 16.3533 14.5072C16.5302 14.5072 17.0594 14.5072 18.4935 12.0466C19.1242 10.9605 19.61 9.6787 19.6433 9.583C19.694 9.47953 19.7674 9.38883 19.8579 9.31765C19.9322 9.27907 20.015 9.25964 20.0986 9.2611H23.5424C23.9194 9.2611 24.1746 9.31765 24.2224 9.4612C24.3051 9.69175 24.2065 10.395 22.6332 12.5207L21.9329 13.4487C20.5061 15.3163 20.5061 15.412 22.017 16.8301Z" fill="white"/>
</svg>
