<svg width="45" height="45" viewBox="0 0 45 45" fill="none" xmlns="http://www.w3.org/2000/svg">
<path fill-rule="evenodd" clip-rule="evenodd" d="M9.75 32.9869L12.9375 29.7994V34.3256L9.27187 37.9594L6.5625 36.8438V28.875H1.78125L0.1875 27.2812V1.78125L1.78125 0.1875H40.0312L41.625 1.78125V16.125H38.4375V3.375H3.375V25.6875H8.15625L9.75 27.2812V32.9869ZM29.7994 38.4375L35.7281 44.3344L38.4375 43.2188V38.4375H43.2188L44.8125 36.8438V20.9062L43.2188 19.3125H17.7188L16.125 20.9062V36.8438L17.7188 38.4375H29.7994ZM30.4688 35.25H19.3125V22.5H41.625V35.25H36.8438L35.25 36.8438V39.3619L31.5844 35.7281L30.4688 35.25Z" fill="#EED2B2"/>
</svg>
