<svg width="51" height="51" viewBox="0 0 51 51" fill="none" xmlns="http://www.w3.org/2000/svg">
<path d="M25.5 0C23.0775 0 21.4582 1.83063 20.5606 3.44116C19.6401 5.10268 19.125 7.12926 19.125 8.72368C19.125 10.0497 19.2857 11.8749 20.2266 13.4103C21.2721 15.1121 23.0469 16.1053 25.5 16.1053C27.9531 16.1053 29.7279 15.1121 30.7734 13.4103C31.7169 11.8749 31.875 10.0497 31.875 8.72368C31.875 7.12926 31.3599 5.1 30.4394 3.44116C29.5443 1.83063 27.9225 0 25.5 0ZM22.95 8.72368C22.95 7.89158 23.2585 6.56289 23.8629 5.47579C24.4953 4.33768 25.1047 4.02632 25.5 4.02632C25.8953 4.02632 26.5047 4.33768 27.1371 5.47579C27.7414 6.56289 28.05 7.89158 28.05 8.72368C28.05 9.82421 27.8919 10.6832 27.5578 11.2254C27.3284 11.6012 26.8694 12.0789 25.5 12.0789C24.1281 12.0789 23.6716 11.6012 23.4421 11.2254C23.1106 10.6832 22.95 9.82421 22.95 8.72368ZM47.175 24.8289V46.9737H49.0875C49.5947 46.9737 50.0812 47.1858 50.4398 47.5633C50.7985 47.9409 51 48.4529 51 48.9868C51 49.5208 50.7985 50.0328 50.4398 50.4104C50.0812 50.7879 49.5947 51 49.0875 51H1.9125C1.40527 51 0.918821 50.7879 0.560158 50.4104C0.201495 50.0328 0 49.5208 0 48.9868C0 48.4529 0.201495 47.9409 0.560158 47.5633C0.918821 47.1858 1.40527 46.9737 1.9125 46.9737H3.825V24.8289C3.825 23.2272 4.42949 21.691 5.50548 20.5584C6.58147 19.4258 8.04082 18.7895 9.5625 18.7895H41.4375C42.9592 18.7895 44.4185 19.4258 45.4945 20.5584C46.5705 21.691 47.175 23.2272 47.175 24.8289ZM7.65 24.8289V30.4416L13.8898 34.6827C14.4051 35.0329 15.0054 35.2191 15.6187 35.2191C16.2321 35.2191 16.8324 35.0329 17.3477 34.6827L21.8025 31.6549C22.9008 30.9094 24.1752 30.5018 25.4818 30.4781C26.7885 30.4544 28.0754 30.8155 29.1975 31.5207L34.3204 34.7391C34.8488 35.0712 35.4571 35.2352 36.072 35.2114C36.687 35.1876 37.2822 34.9769 37.7859 34.6048L43.35 30.4926V24.8289C43.35 24.295 43.1485 23.783 42.7898 23.4054C42.4312 23.0279 41.9447 22.8158 41.4375 22.8158H9.5625C9.05527 22.8158 8.56882 23.0279 8.21016 23.4054C7.85149 23.783 7.65 24.295 7.65 24.8289ZM39.984 37.9011C38.8758 38.7198 37.5662 39.1833 36.2132 39.2357C34.8603 39.2881 33.5218 38.9271 32.3595 38.1963L27.2391 34.9753C26.7288 34.6544 26.1434 34.4901 25.549 34.501C24.9547 34.512 24.375 34.6976 23.8756 35.037L19.4208 38.0648C18.2875 38.8345 16.9674 39.2439 15.6187 39.2439C14.27 39.2439 12.95 38.8345 11.8167 38.0648L7.65 35.2329V46.9737H43.35V35.4128L39.984 37.8984V37.9011Z" fill="#EED2B2"/>
</svg>
