<svg width="175" height="47" viewBox="0 0 175 47" fill="none" xmlns="http://www.w3.org/2000/svg">
<path d="M60.9805 0.480469C63.4023 0.480469 65.3828 1.21875 66.9219 2.69531C68.4609 4.16406 69.2305 6 69.2305 8.20312C69.2305 11.0391 68.3398 13.4258 66.5586 15.3633C64.7773 17.3008 62.4141 18.2695 59.4688 18.2695C57.0781 18.2695 55.1211 17.4883 53.5977 15.9258C52.0742 14.3633 51.3125 12.4883 51.3125 10.3008C51.3125 8.82422 51.6797 7.30859 52.4141 5.75391C53.1484 4.19922 54.2539 2.93359 55.7305 1.95703C57.207 0.972656 58.957 0.480469 60.9805 0.480469ZM60.9102 17.3555C62.0977 17.3555 63.2695 17.0391 64.4258 16.4062C65.582 15.7656 66.4922 14.8867 67.1562 13.7695C67.8203 12.6523 68.1523 11.5039 68.1523 10.3242C68.1523 8.65234 67.7031 7.13281 66.8047 5.76562C65.9141 4.39844 64.7539 3.32812 63.3242 2.55469C61.9023 1.78125 60.5859 1.39453 59.375 1.39453C57.6641 1.39453 56.1094 2.03906 54.7109 3.32812C53.3203 4.61719 52.625 6.21875 52.625 8.13281C52.625 10.5781 53.4766 12.7266 55.1797 14.5781C56.8828 16.4297 58.793 17.3555 60.9102 17.3555ZM70.332 18V17.8359C70.8711 17.8359 71.2188 17.7344 71.375 17.5312C71.5391 17.3281 71.6211 16.9805 71.6211 16.4883V2.35547C71.6211 1.85547 71.5586 1.49609 71.4336 1.27734C71.3086 1.05078 70.9336 0.929687 70.3086 0.914062V0.738281H74.9375V0.914062C74.5078 0.914062 74.207 0.96875 74.0352 1.07812C73.8633 1.1875 73.75 1.31641 73.6953 1.46484C73.6406 1.61328 73.6133 1.94922 73.6133 2.47266V14.5898C73.6133 15.6289 73.8633 16.3633 74.3633 16.793C74.8633 17.2148 75.7188 17.4258 76.9297 17.4258H79.0391C80.0547 17.4258 80.7969 17.1758 81.2656 16.6758C81.7422 16.1758 82.0078 15.2344 82.0625 13.8516H82.2266V18H70.332ZM100.273 17.8359V18H93.3125C91.9766 18 90.8047 17.8555 89.7969 17.5664C88.7969 17.2773 87.7734 16.7305 86.7266 15.9258C85.6875 15.1133 84.8438 14.1055 84.1953 12.9023C83.5547 11.6992 83.2344 10.4688 83.2344 9.21094C83.2344 7.83594 83.6367 6.46484 84.4414 5.09766C85.2539 3.73047 86.4062 2.62109 87.8984 1.76953C89.3906 0.910156 91.082 0.480469 92.9727 0.480469C94.668 0.480469 96.4609 0.855469 98.3516 1.60547L99.0664 3.59766H98.9023C98.3008 2.83203 97.4766 2.19922 96.4297 1.69922C95.3906 1.19141 94.2305 0.9375 92.9492 0.9375C90.7227 0.9375 88.8984 1.77734 87.4766 3.45703C86.0547 5.12891 85.3438 7.20703 85.3438 9.69141C85.3438 10.7227 85.4609 11.6445 85.6953 12.457C85.9297 13.2617 86.3672 14.0586 87.0078 14.8477C87.6562 15.6289 88.3477 16.207 89.082 16.582C89.8242 16.9492 90.6523 17.207 91.5664 17.3555C92.4805 17.4961 93.207 17.5586 93.7461 17.543L94.6719 17.5195C95.7188 17.4805 96.3711 17.3828 96.6289 17.2266C96.8945 17.0703 97.0273 16.6719 97.0273 16.0312V13.418C97.0273 12.9102 96.9219 12.5703 96.7109 12.3984C96.5 12.2188 96.1992 12.1406 95.8086 12.1641V12H100.273V12.1641C99.7734 12.1641 99.4375 12.2617 99.2656 12.457C99.1016 12.6523 99.0195 13.0273 99.0195 13.582V16.3008C99.0195 16.8477 99.0898 17.2422 99.2305 17.4844C99.3789 17.7188 99.6445 17.8359 100.027 17.8359H100.273ZM111.008 10.0547H105.969L103.355 16.582C103.176 17.0508 103.086 17.3398 103.086 17.4492C103.086 17.707 103.277 17.8359 103.66 17.8359V18H101.094V17.8359C101.438 17.8359 101.727 17.7539 101.961 17.5898C102.195 17.418 102.453 16.9805 102.734 16.2773L108.992 0.480469H109.285L115.449 15.7383C115.449 15.8164 115.605 16.1875 115.918 16.8516C116.238 17.5078 116.723 17.8359 117.371 17.8359V18H113.34V17.8359C113.707 17.8359 113.891 17.6914 113.891 17.4023C113.891 17.207 113.801 16.8945 113.621 16.4648C113.59 16.4336 113.562 16.3828 113.539 16.3125C113.523 16.2344 113.512 16.1953 113.504 16.1953L111.008 10.0547ZM106.133 9.57422H110.797L108.465 3.69141L106.133 9.57422ZM17.0938 28.7383H19.8125V28.9141C18.8984 28.9609 18.4414 29.4414 18.4414 30.3555C18.4414 30.5508 18.4648 30.8203 18.5117 31.1641L20.3164 44.2422C20.4258 44.8984 20.5469 45.3203 20.6797 45.5078C20.8203 45.6875 21.1055 45.7969 21.5352 45.8359V46H17.6562V45.8359C18.1641 45.8516 18.418 45.6016 18.418 45.0859C18.418 44.9688 18.3945 44.7383 18.3477 44.3945L16.5898 31.7148L10.4023 46H10.2852L4.0625 31.7383L2.31641 44.4883C2.28516 44.6836 2.26953 44.9062 2.26953 45.1562C2.26953 45.6094 2.53125 45.8359 3.05469 45.8359V46H0.417969V45.8359C0.816406 45.8359 1.07031 45.7852 1.17969 45.6836C1.29688 45.582 1.38672 45.4258 1.44922 45.2148C1.51172 44.9961 1.55859 44.7539 1.58984 44.4883L3.55859 30.543C3.23828 29.7695 2.91797 29.3047 2.59766 29.1484C2.27734 28.9922 1.96875 28.9141 1.67188 28.9141V28.7383H4.92969L11 42.8594L17.0938 28.7383ZM32.0703 28.4805C34.4922 28.4805 36.4727 29.2188 38.0117 30.6953C39.5508 32.1641 40.3203 34 40.3203 36.2031C40.3203 39.0391 39.4297 41.4258 37.6484 43.3633C35.8672 45.3008 33.5039 46.2695 30.5586 46.2695C28.168 46.2695 26.2109 45.4883 24.6875 43.9258C23.1641 42.3633 22.4023 40.4883 22.4023 38.3008C22.4023 36.8242 22.7695 35.3086 23.5039 33.7539C24.2383 32.1992 25.3438 30.9336 26.8203 29.957C28.2969 28.9727 30.0469 28.4805 32.0703 28.4805ZM32 45.3555C33.1875 45.3555 34.3594 45.0391 35.5156 44.4062C36.6719 43.7656 37.582 42.8867 38.2461 41.7695C38.9102 40.6523 39.2422 39.5039 39.2422 38.3242C39.2422 36.6523 38.793 35.1328 37.8945 33.7656C37.0039 32.3984 35.8438 31.3281 34.4141 30.5547C32.9922 29.7812 31.6758 29.3945 30.4648 29.3945C28.7539 29.3945 27.1992 30.0391 25.8008 31.3281C24.4102 32.6172 23.7148 34.2188 23.7148 36.1328C23.7148 38.5781 24.5664 40.7266 26.2695 42.5781C27.9727 44.4297 29.8828 45.3555 32 45.3555ZM57.6641 43.293V46H41.293L54.6875 29.3945H45.7109C44.9688 29.3945 44.457 29.4922 44.1758 29.6875C43.9023 29.875 43.7109 30.3438 43.6016 31.0938H43.4375L43.5312 28.7383H57.7344L44.293 45.3555H55.7422C56.4062 45.3555 56.8516 45.2188 57.0781 44.9453C57.3125 44.6719 57.4531 44.1211 57.5 43.293H57.6641ZM71.7266 37.3867H62.2461V44.0312C62.2461 44.6562 62.2734 45.0547 62.3281 45.2266C62.3906 45.3984 62.5 45.543 62.6562 45.6602C62.8203 45.7773 63.1016 45.8359 63.5 45.8359V46H59.0352V45.8359C59.8477 45.8906 60.2539 45.4961 60.2539 44.6523V30.7656C60.2539 29.9766 60.1875 29.4766 60.0547 29.2656C59.9297 29.0547 59.5898 28.9375 59.0352 28.9141V28.7383H63.5V28.9141C63.0078 28.9453 62.6758 29.0391 62.5039 29.1953C62.332 29.3516 62.2461 29.6719 62.2461 30.1562V36.9062H71.7266V30.7305C71.7266 30.0273 71.6641 29.5508 71.5391 29.3008C71.4219 29.043 71.0859 28.9141 70.5312 28.9141V28.7383H74.9492V28.9141C74.5977 28.9141 74.3359 28.957 74.1641 29.043C73.9922 29.1211 73.875 29.2461 73.8125 29.418C73.75 29.5898 73.7188 30.0273 73.7188 30.7305V43.9844C73.7188 44.6641 73.75 45.0898 73.8125 45.2617C73.875 45.4258 73.9844 45.5625 74.1406 45.6719C74.2969 45.7812 74.5664 45.8359 74.9492 45.8359V46H70.5312V45.8359C71.0078 45.8359 71.3242 45.7383 71.4805 45.543C71.6445 45.3477 71.7266 44.8203 71.7266 43.9609V37.3867ZM85.918 38.0547H80.8789L78.2656 44.582C78.0859 45.0508 77.9961 45.3398 77.9961 45.4492C77.9961 45.707 78.1875 45.8359 78.5703 45.8359V46H76.0039V45.8359C76.3477 45.8359 76.6367 45.7539 76.8711 45.5898C77.1055 45.418 77.3633 44.9805 77.6445 44.2773L83.9023 28.4805H84.1953L90.3594 43.7383C90.3594 43.8164 90.5156 44.1875 90.8281 44.8516C91.1484 45.5078 91.6328 45.8359 92.2812 45.8359V46H88.25V45.8359C88.6172 45.8359 88.8008 45.6914 88.8008 45.4023C88.8008 45.207 88.7109 44.8945 88.5312 44.4648C88.5 44.4336 88.4727 44.3828 88.4492 44.3125C88.4336 44.2344 88.4219 44.1953 88.4141 44.1953L85.918 38.0547ZM81.043 37.5742H85.707L83.375 31.6914L81.043 37.5742ZM101.621 28.7383H104.211V28.9141C103.883 28.9375 103.613 29.0156 103.402 29.1484C103.191 29.2812 102.949 29.5547 102.676 29.9688L98.457 36.3555V44.2773C98.457 44.918 98.5391 45.3398 98.7031 45.543C98.8672 45.7383 99.2227 45.8359 99.7695 45.8359V46H95.1641V45.8359C96.0469 45.8906 96.4883 45.543 96.4883 44.793L96.4648 44.3008V37L92.2344 29.9922C91.7891 29.25 91.293 28.8906 90.7461 28.9141V28.7383H94.8242V28.9141C94.4414 28.9141 94.25 29.0586 94.25 29.3477C94.25 29.4961 94.3477 29.7266 94.543 30.0391L98.0234 35.7812L101.832 29.9922C101.902 29.9297 101.98 29.8164 102.066 29.6523C102.152 29.4805 102.195 29.3633 102.195 29.3008C102.195 29.043 102.027 28.9141 101.691 28.9141H101.621V28.7383ZM118.883 28.1406L118.062 30.2266H117.898C117.93 30.1016 117.945 29.9336 117.945 29.7227C117.945 29.543 117.879 29.4297 117.746 29.3828C117.621 29.3281 117.418 29.3008 117.137 29.3008H112.625V44.0781C112.625 44.6875 112.672 45.1055 112.766 45.332C112.867 45.5508 113 45.6914 113.164 45.7539C113.336 45.8086 113.609 45.8359 113.984 45.8359V46H109.309V45.8359C109.895 45.7969 110.262 45.6836 110.41 45.4961C110.559 45.3086 110.633 44.918 110.633 44.3242V29.3008H106.309C105.871 29.3008 105.586 29.3281 105.453 29.3828C105.32 29.4297 105.254 29.5547 105.254 29.7578C105.254 29.8594 105.285 30.0156 105.348 30.2266H105.184L104.363 28.1406H104.527C104.668 28.4219 104.805 28.5938 104.938 28.6562C105.078 28.7109 105.375 28.7383 105.828 28.7383H117.301C117.754 28.7383 118.078 28.7109 118.273 28.6562C118.477 28.5938 118.625 28.4219 118.719 28.1406H118.883ZM128.082 28.9609L128.902 31.1172L128.762 31.1406C128.762 31.1328 128.543 30.9023 128.105 30.4492C127.676 29.9961 127.18 29.6484 126.617 29.4062C126.062 29.1562 125.434 29.0312 124.73 29.0312C123.551 29.0312 122.613 29.3711 121.918 30.0508C121.23 30.7227 120.887 31.5352 120.887 32.4883C120.887 33.1211 121.047 33.6758 121.367 34.1523C121.695 34.6211 122.375 35.0586 123.406 35.4648C125.18 36.0586 126.391 36.5078 127.039 36.8125C127.695 37.1094 128.324 37.6172 128.926 38.3359C129.535 39.0547 129.84 39.9766 129.84 41.1016C129.84 41.5703 129.785 42.0195 129.676 42.4492C129.566 42.8711 129.391 43.2812 129.148 43.6797C128.906 44.0703 128.613 44.4297 128.27 44.7578C127.934 45.0781 127.59 45.3242 127.238 45.4961C126.887 45.6602 126.332 45.7852 125.574 45.8711C124.816 45.957 124.316 46 124.074 46H119.469V40.9844H119.645C119.66 42.6484 120.051 43.8086 120.816 44.4648C121.582 45.1211 122.773 45.4492 124.391 45.4492C125.859 45.4492 126.973 45.1016 127.73 44.4062C128.496 43.7109 128.879 42.875 128.879 41.8984C128.879 41.3047 128.746 40.8008 128.48 40.3867C128.215 39.9648 127.844 39.5977 127.367 39.2852C126.891 38.9648 125.988 38.5781 124.66 38.125C123.34 37.6641 122.41 37.2617 121.871 36.918C121.34 36.5664 120.895 36.043 120.535 35.3477C120.176 34.6445 119.996 33.9297 119.996 33.2031C119.996 31.8672 120.453 30.7461 121.367 29.8398C122.289 28.9336 123.496 28.4805 124.988 28.4805C125.566 28.4805 126.191 28.5469 126.863 28.6797C127.535 28.8125 127.91 28.8984 127.988 28.9375C128.02 28.9531 128.051 28.9609 128.082 28.9609ZM131.316 28.9375V28.7383H142.168V31.1172H141.992C141.758 30.2344 141.559 29.7148 141.395 29.5586C141.238 29.4023 140.848 29.3242 140.223 29.3242H134.527V37.0703H139.812C140.336 37.0703 140.668 37.0234 140.809 36.9297C140.949 36.8281 141.023 36.6836 141.031 36.4961H141.207V38.125H141.031C140.992 37.8984 140.898 37.7461 140.75 37.668C140.609 37.5898 140.344 37.5508 139.953 37.5508H134.527V42.8828C134.527 43.6875 134.602 44.2695 134.75 44.6289C134.898 44.9805 135.133 45.2031 135.453 45.2969C135.781 45.3828 136.273 45.4258 136.93 45.4258H139.977C140.945 45.4258 141.562 45.3945 141.828 45.332C142.102 45.2617 142.332 45.1289 142.52 44.9336C142.707 44.7305 142.852 44.293 142.953 43.6211H143.117V46H131.316V45.8359C131.715 45.8125 132.016 45.7383 132.219 45.6133C132.43 45.4805 132.535 45.1445 132.535 44.6055V30.6602C132.535 30.0273 132.48 29.582 132.371 29.3242C132.262 29.0664 131.91 28.9375 131.316 28.9375ZM151.812 46.2695H151.59L145.449 31.0703C145.012 30 144.652 29.375 144.371 29.1953C144.09 29.0078 143.801 28.9141 143.504 28.9141V28.7383H147.488V28.9141C147.137 28.8906 146.961 29.0273 146.961 29.3242C146.961 29.4414 146.984 29.5664 147.031 29.6992L152.387 43L157.707 29.7109C157.777 29.5312 157.812 29.3867 157.812 29.2773C157.812 29.0117 157.605 28.8906 157.191 28.9141V28.7383H159.781V28.9141C159.602 28.9141 159.41 28.9414 159.207 28.9961C159.012 29.043 158.809 29.2422 158.598 29.5938C158.387 29.9453 158.277 30.1328 158.27 30.1562L151.812 46.2695ZM168.137 38.0547H163.098L160.484 44.582C160.305 45.0508 160.215 45.3398 160.215 45.4492C160.215 45.707 160.406 45.8359 160.789 45.8359V46H158.223V45.8359C158.566 45.8359 158.855 45.7539 159.09 45.5898C159.324 45.418 159.582 44.9805 159.863 44.2773L166.121 28.4805H166.414L172.578 43.7383C172.578 43.8164 172.734 44.1875 173.047 44.8516C173.367 45.5078 173.852 45.8359 174.5 45.8359V46H170.469V45.8359C170.836 45.8359 171.02 45.6914 171.02 45.4023C171.02 45.207 170.93 44.8945 170.75 44.4648C170.719 44.4336 170.691 44.3828 170.668 44.3125C170.652 44.2344 170.641 44.1953 170.633 44.1953L168.137 38.0547ZM163.262 37.5742H167.926L165.594 31.6914L163.262 37.5742Z" fill="#212426"/>
</svg>
