<svg width="39" height="44" viewBox="0 0 39 44" fill="none" xmlns="http://www.w3.org/2000/svg">
<path d="M9.1252 12.85C8.78704 12.85 8.46274 12.9843 8.22363 13.2234C7.98453 13.4625 7.85019 13.7868 7.85019 14.125C7.85019 14.4632 7.98453 14.7875 8.22363 15.0266C8.46274 15.2657 8.78704 15.4 9.1252 15.4H21.8752C22.2133 15.4 22.5376 15.2657 22.7768 15.0266C23.0159 14.7875 23.1502 14.4632 23.1502 14.125C23.1502 13.7868 23.0159 13.4625 22.7768 13.2234C22.5376 12.9843 22.2133 12.85 21.8752 12.85H9.1252ZM9.1252 28.15C8.78704 28.15 8.46274 28.2843 8.22363 28.5234C7.98453 28.7625 7.85019 29.0868 7.85019 29.425C7.85019 29.7632 7.98453 30.0875 8.22363 30.3266C8.46274 30.5657 8.78704 30.7 9.1252 30.7H14.2252C14.5633 30.7 14.8876 30.5657 15.1268 30.3266C15.3659 30.0875 15.5002 29.7632 15.5002 29.425C15.5002 29.0868 15.3659 28.7625 15.1268 28.5234C14.8876 28.2843 14.5633 28.15 14.2252 28.15H9.1252ZM6.5752 0.0999999C6.23704 0.0999999 5.91274 0.23433 5.67363 0.473439C5.43453 0.712548 5.3002 1.03685 5.3002 1.375V2.65H4.0252C3.01074 2.65 2.03784 3.05299 1.32051 3.77032C0.603185 4.48764 0.200195 5.46055 0.200195 6.475V37.075C0.200195 38.0895 0.603185 39.0624 1.32051 39.7797C2.03784 40.497 3.01074 40.9 4.0252 40.9H18.986C18.5667 40.1025 18.2831 39.2407 18.1471 38.35H4.0252C3.68704 38.35 3.36274 38.2157 3.12363 37.9766C2.88453 37.7375 2.7502 37.4131 2.7502 37.075V6.475C2.7502 6.13685 2.88453 5.81255 3.12363 5.57344C3.36274 5.33433 3.68704 5.2 4.0252 5.2H26.9752C27.3133 5.2 27.6376 5.33433 27.8768 5.57344C28.1159 5.81255 28.2502 6.13685 28.2502 6.475V18.0545C29.0943 17.9128 29.9561 17.9128 30.8002 18.0545V6.475C30.8002 5.46055 30.3972 4.48764 29.6799 3.77032C28.9626 3.05299 27.9896 2.65 26.9752 2.65H25.7002V1.375C25.7002 1.03685 25.5659 0.712548 25.3268 0.473439C25.0876 0.23433 24.7633 0.0999999 24.4252 0.0999999C24.087 0.0999999 23.7627 0.23433 23.5236 0.473439C23.2845 0.712548 23.1502 1.03685 23.1502 1.375V2.65H16.7752V1.375C16.7752 1.03685 16.6409 0.712548 16.4018 0.473439C16.1626 0.23433 15.8383 0.0999999 15.5002 0.0999999C15.162 0.0999999 14.8377 0.23433 14.5986 0.473439C14.3595 0.712548 14.2252 1.03685 14.2252 1.375V2.65H7.85019V1.375C7.85019 1.03685 7.71587 0.712548 7.47676 0.473439C7.23765 0.23433 6.91335 0.0999999 6.5752 0.0999999ZM29.5252 30.7C30.8778 30.7 32.175 30.1627 33.1314 29.2062C34.0879 28.2498 34.6252 26.9526 34.6252 25.6C34.6252 24.2474 34.0879 22.9502 33.1314 21.9938C32.175 21.0373 30.8778 20.5 29.5252 20.5C28.1726 20.5 26.8754 21.0373 25.919 21.9938C24.9625 22.9502 24.4252 24.2474 24.4252 25.6C24.4252 26.9526 24.9625 28.2498 25.919 29.2062C26.8754 30.1627 28.1726 30.7 29.5252 30.7ZM29.5252 43.45C35.9002 43.45 38.4502 40.2497 38.4502 37.075C38.4502 36.0605 38.0472 35.0876 37.3299 34.3703C36.6125 33.653 35.6396 33.25 34.6252 33.25H24.4252C23.4107 33.25 22.4378 33.653 21.7205 34.3703C21.0032 35.0876 20.6002 36.0605 20.6002 37.075C20.6002 40.2625 23.1502 43.45 29.5252 43.45ZM9.1252 20.5C8.78704 20.5 8.46274 20.6343 8.22363 20.8734C7.98453 21.1125 7.85019 21.4368 7.85019 21.775C7.85019 22.1132 7.98453 22.4375 8.22363 22.6766C8.46274 22.9157 8.78704 23.05 9.1252 23.05H18.0502C18.3883 23.05 18.7126 22.9157 18.9518 22.6766C19.1909 22.4375 19.3252 22.1132 19.3252 21.775C19.3252 21.4368 19.1909 21.1125 18.9518 20.8734C18.7126 20.6343 18.3883 20.5 18.0502 20.5H9.1252Z" fill="#EED2B2"/>
</svg>
